<?xml version="1.0" encoding="utf-8"?>
<svg viewBox="0 0 822 189" width="822" height="189" style="enable-background:new 0 0 826.9 189;" xmlns="http://www.w3.org/2000/svg">
  <defs>
    <style type="text/css">
	.st0{fill:#848688;}
	.st1{font-family:'Nunito-Light';}
	.st2{font-size:156px;}
	.st3{font-family:'Nunito-SemiBold';}
	.st4{fill:#009CD3;}
	.st5{fill:#00B4D5;stroke:#A3D9EA;stroke-width:6;stroke-miterlimit:1.1061;}
	.st6{fill:#33CCFF;stroke:#A3D9EA;stroke-width:6;stroke-miterlimit:1.1061;}
	.st7{fill:#DBEFF8;stroke:#A3D9EA;stroke-width:6;stroke-miterlimit:1.1061;}
	.st8{fill:#009CD3;stroke:#A3D9EA;stroke-width:6;stroke-miterlimit:1.1061;}
</style>
  </defs>
  <path d="M 280.566 119.356 C 281.506 119.356 282.313 119.746 282.986 120.526 C 283.659 121.306 283.996 122.216 283.996 123.256 C 283.996 125.543 282.229 127.776 278.696 129.956 C 271.209 134.429 263.306 136.666 254.986 136.666 C 243.439 136.666 234.339 133.183 227.686 126.216 C 221.026 119.249 217.696 109.683 217.696 97.516 C 217.696 89.716 219.179 82.826 222.146 76.846 C 225.113 70.866 229.273 66.236 234.626 62.956 C 239.979 59.683 246.143 58.046 253.116 58.046 C 262.889 58.046 270.609 61.193 276.276 67.486 C 281.943 73.773 284.776 82.429 284.776 93.456 C 284.776 95.329 284.363 96.706 283.536 97.586 C 282.703 98.473 281.349 98.916 279.476 98.916 L 227.526 98.916 C 227.839 108.483 230.336 115.763 235.016 120.756 C 239.696 125.749 246.299 128.246 254.826 128.246 C 259.299 128.246 263.043 127.646 266.056 126.446 C 269.076 125.253 272.303 123.669 275.736 121.696 C 278.023 120.136 279.633 119.356 280.566 119.356 Z M 253.116 65.846 C 245.836 65.846 240.009 68.133 235.636 72.706 C 231.269 77.286 228.669 83.683 227.836 91.896 L 276.046 91.896 C 275.839 83.576 273.759 77.153 269.806 72.626 C 265.853 68.106 260.289 65.846 253.116 65.846 ZM 334.542 58.046 C 343.695 58.046 350.535 60.436 355.062 65.216 C 359.582 70.003 361.842 77.233 361.842 86.906 L 361.842 131.366 C 361.842 132.819 361.425 133.989 360.592 134.876 C 359.765 135.756 358.622 136.196 357.162 136.196 C 355.709 136.196 354.565 135.756 353.732 134.876 C 352.899 133.989 352.482 132.819 352.482 131.366 L 352.482 122.006 C 350.302 126.686 347.132 130.299 342.972 132.846 C 338.812 135.393 334.025 136.666 328.612 136.666 C 323.725 136.666 319.255 135.679 315.202 133.706 C 311.142 131.726 307.942 128.969 305.602 125.436 C 303.262 121.903 302.092 118.003 302.092 113.736 C 302.092 108.123 303.549 103.756 306.462 100.636 C 309.375 97.516 314.212 95.279 320.972 93.926 C 327.732 92.573 337.145 91.896 349.212 91.896 L 352.482 91.896 L 352.482 86.126 C 352.482 79.259 351.079 74.239 348.272 71.066 C 345.465 67.899 341.045 66.316 335.012 66.316 C 327.319 66.316 319.985 68.343 313.012 72.396 C 312.705 72.603 311.902 73.149 310.602 74.036 C 309.302 74.916 308.182 75.356 307.242 75.356 C 306.202 75.356 305.345 74.966 304.672 74.186 C 303.992 73.406 303.652 72.446 303.652 71.306 C 303.652 69.019 305.472 66.783 309.112 64.596 C 312.752 62.516 316.809 60.903 321.282 59.756 C 325.755 58.616 330.175 58.046 334.542 58.046 Z M 329.392 128.396 C 336.152 128.396 341.692 126.109 346.012 121.536 C 350.325 116.963 352.482 111.139 352.482 104.066 L 352.482 98.916 L 349.522 98.916 C 339.535 98.916 331.892 99.333 326.592 100.166 C 321.285 100.999 317.539 102.429 315.352 104.456 C 313.172 106.483 312.082 109.419 312.082 113.266 C 312.082 117.633 313.745 121.246 317.072 124.106 C 320.399 126.966 324.505 128.396 329.392 128.396 ZM 411.138 136.666 C 406.771 136.666 402.481 136.069 398.268 134.876 C 394.055 133.676 390.338 132.036 387.118 129.956 C 385.138 128.609 383.758 127.439 382.978 126.446 C 382.198 125.459 381.808 124.343 381.808 123.096 C 381.808 122.056 382.148 121.173 382.828 120.446 C 383.501 119.719 384.308 119.356 385.248 119.356 C 386.181 119.356 387.791 120.136 390.078 121.696 C 393.098 123.669 396.191 125.279 399.358 126.526 C 402.531 127.773 406.511 128.396 411.298 128.396 C 417.431 128.396 422.215 127.279 425.648 125.046 C 429.081 122.813 430.798 119.616 430.798 115.456 C 430.798 112.956 430.175 110.899 428.928 109.286 C 427.675 107.679 425.595 106.276 422.688 105.076 C 419.775 103.883 415.615 102.713 410.208 101.566 C 400.948 99.486 394.368 96.809 390.468 93.536 C 386.568 90.256 384.618 85.863 384.618 80.356 C 384.618 73.696 387.218 68.313 392.418 64.206 C 397.618 60.099 404.378 58.046 412.698 58.046 C 416.758 58.046 420.631 58.566 424.318 59.606 C 428.011 60.646 431.211 62.153 433.918 64.126 C 437.558 66.626 439.378 69.069 439.378 71.456 C 439.378 72.496 439.038 73.406 438.358 74.186 C 437.685 74.966 436.881 75.356 435.948 75.356 C 434.908 75.356 433.295 74.526 431.108 72.866 C 428.301 70.886 425.518 69.299 422.758 68.106 C 420.005 66.913 416.495 66.316 412.228 66.316 C 406.821 66.316 402.508 67.536 399.288 69.976 C 396.061 72.423 394.448 75.726 394.448 79.886 C 394.448 82.279 394.995 84.256 396.088 85.816 C 397.181 87.376 399.051 88.753 401.698 89.946 C 404.351 91.139 408.175 92.309 413.168 93.456 C 420.341 95.123 425.855 96.889 429.708 98.756 C 433.555 100.629 436.308 102.866 437.968 105.466 C 439.635 108.066 440.468 111.396 440.468 115.456 C 440.468 121.796 437.791 126.916 432.438 130.816 C 427.078 134.716 419.978 136.666 411.138 136.666 ZM 515.196 61.166 C 516.023 59.293 517.373 58.356 519.246 58.356 C 520.393 58.356 521.433 58.773 522.366 59.606 C 523.306 60.439 523.776 61.426 523.776 62.566 C 523.776 63.293 523.619 63.969 523.306 64.596 L 479.156 161.476 C 478.323 163.243 476.969 164.126 475.096 164.126 C 473.956 164.126 472.943 163.763 472.056 163.036 C 471.176 162.303 470.736 161.366 470.736 160.226 C 470.736 159.599 470.889 158.976 471.196 158.356 L 482.276 134.176 L 450.296 64.596 C 449.983 63.969 449.826 63.346 449.826 62.726 C 449.826 61.479 450.373 60.413 451.466 59.526 C 452.559 58.639 453.729 58.196 454.976 58.196 C 456.949 58.196 458.303 59.133 459.036 61.006 L 487.116 124.036 L 515.196 61.166 Z" transform="matrix(1, 0, 0, 1, 0, 0)" style="white-space: pre; fill: rgb(132, 134, 136);"/>
  <path d="M 570.1 136.666 C 562.72 136.666 556.247 135.056 550.68 131.836 C 545.12 128.609 540.803 124.033 537.73 118.106 C 534.663 112.179 533.13 105.316 533.13 97.516 C 533.13 89.609 534.717 82.639 537.89 76.606 C 541.063 70.573 545.51 65.893 551.23 62.566 C 556.95 59.239 563.5 57.576 570.88 57.576 C 574.833 57.576 578.813 58.149 582.82 59.296 C 586.82 60.436 590.38 61.996 593.5 63.976 C 596.833 66.263 598.5 68.913 598.5 71.926 C 598.5 73.693 598.03 75.176 597.09 76.376 C 596.157 77.569 594.96 78.166 593.5 78.166 C 592.567 78.166 591.633 77.933 590.7 77.466 C 589.76 76.999 588.563 76.296 587.11 75.356 C 584.51 73.696 582.09 72.423 579.85 71.536 C 577.617 70.656 574.94 70.216 571.82 70.216 C 564.747 70.216 559.26 72.606 555.36 77.386 C 551.46 82.173 549.51 88.829 549.51 97.356 C 549.51 105.883 551.433 112.459 555.28 117.086 C 559.133 121.719 564.593 124.036 571.66 124.036 C 574.78 124.036 577.537 123.566 579.93 122.626 C 582.323 121.693 584.767 120.446 587.26 118.886 C 588.407 118.159 589.553 117.536 590.7 117.016 C 591.84 116.496 592.88 116.236 593.82 116.236 C 595.273 116.236 596.467 116.833 597.4 118.026 C 598.34 119.219 598.81 120.703 598.81 122.476 C 598.81 123.929 598.42 125.253 597.64 126.446 C 596.86 127.646 595.533 128.869 593.66 130.116 C 590.54 132.196 586.9 133.809 582.74 134.956 C 578.58 136.096 574.367 136.666 570.1 136.666 ZM 645.918 136.666 C 638.431 136.666 631.855 135.056 626.188 131.836 C 620.521 128.609 616.151 124.006 613.078 118.026 C 610.011 112.046 608.478 105.103 608.478 97.196 C 608.478 89.189 610.011 82.196 613.078 76.216 C 616.151 70.236 620.521 65.636 626.188 62.416 C 631.855 59.189 638.431 57.576 645.918 57.576 C 653.405 57.576 659.985 59.189 665.658 62.416 C 671.325 65.636 675.691 70.236 678.758 76.216 C 681.825 82.196 683.358 89.189 683.358 97.196 C 683.358 105.103 681.825 112.046 678.758 118.026 C 675.691 124.006 671.325 128.609 665.658 131.836 C 659.985 135.056 653.405 136.666 645.918 136.666 Z M 645.918 124.186 C 652.885 124.186 658.215 121.899 661.908 117.326 C 665.601 112.746 667.448 106.036 667.448 97.196 C 667.448 88.463 665.575 81.783 661.828 77.156 C 658.088 72.529 652.785 70.216 645.918 70.216 C 639.058 70.216 633.755 72.529 630.008 77.156 C 626.261 81.783 624.388 88.463 624.388 97.196 C 624.388 106.036 626.235 112.746 629.928 117.326 C 633.621 121.899 638.951 124.186 645.918 124.186 ZM 740.772 57.886 C 745.759 57.573 748.252 59.706 748.252 64.286 C 748.252 66.573 747.682 68.289 746.542 69.436 C 745.395 70.576 743.419 71.249 740.612 71.456 L 735.932 71.926 C 729.379 72.553 724.515 74.843 721.342 78.796 C 718.175 82.743 716.592 87.526 716.592 93.146 L 716.592 128.866 C 716.592 131.366 715.862 133.239 714.402 134.486 C 712.949 135.733 711.079 136.356 708.792 136.356 C 706.499 136.356 704.599 135.733 703.092 134.486 C 701.585 133.239 700.832 131.366 700.832 128.866 L 700.832 65.376 C 700.832 62.983 701.585 61.136 703.092 59.836 C 704.599 58.536 706.499 57.886 708.792 57.886 C 710.872 57.886 712.612 58.536 714.012 59.836 C 715.419 61.136 716.122 62.929 716.122 65.216 L 716.122 72.706 C 718.202 68.133 721.219 64.649 725.172 62.256 C 729.119 59.863 733.589 58.459 738.582 58.046 L 740.772 57.886 ZM 815.958 116.386 C 817.418 116.386 818.615 116.959 819.548 118.106 C 820.481 119.246 820.948 120.703 820.948 122.476 C 820.948 125.489 819.078 128.036 815.338 130.116 C 811.698 132.196 807.718 133.809 803.398 134.956 C 799.085 136.096 794.951 136.666 790.998 136.666 C 778.938 136.666 769.421 133.156 762.448 126.136 C 755.481 119.116 751.998 109.523 751.998 97.356 C 751.998 89.556 753.531 82.639 756.598 76.606 C 759.671 70.573 763.988 65.893 769.548 62.566 C 775.115 59.239 781.435 57.576 788.508 57.576 C 798.695 57.576 806.755 60.853 812.688 67.406 C 818.615 73.959 821.578 82.799 821.578 93.926 C 821.578 98.086 819.705 100.166 815.958 100.166 L 767.758 100.166 C 768.798 116.286 776.545 124.346 790.998 124.346 C 794.845 124.346 798.175 123.826 800.988 122.786 C 803.795 121.746 806.758 120.393 809.878 118.726 C 810.191 118.519 811.048 118.079 812.448 117.406 C 813.855 116.726 815.025 116.386 815.958 116.386 Z M 788.818 69.116 C 782.785 69.116 777.948 71.043 774.308 74.896 C 770.668 78.743 768.485 84.149 767.758 91.116 L 808.008 91.116 C 807.695 84.043 805.898 78.609 802.618 74.816 C 799.345 71.016 794.745 69.116 788.818 69.116 Z" transform="matrix(1, 0, 0, 1, 0, 0)" style="white-space: pre; fill: rgb(132, 134, 136);"/>
  <g>
    <circle class="st4" cx="94.5" cy="94.5" r="94.5"/>
    <rect x="28.82" y="28.82" transform="matrix(0.707107, -0.707107, 0.707107, 0.707107, -36.260201, 94.5)" class="st5" width="127.279" height="127.279" style="stroke-miterlimit: 2;"/>
    <rect x="28.82" y="28.82" transform="matrix(0, 1, -1, 0, 186.974869, 2.033016)" class="st6" width="127.281" height="127.281" style="stroke-miterlimit: 2;"/>
    <circle class="st7" cx="94.798" cy="94.79" r="60.099"/>
    <circle class="st8" cx="94.01" cy="94.986" r="31.869"/>
  </g>
</svg>